<?xml version="1.0" encoding="iso-8859-1"?>
<!-- Generator: Adobe Illustrator 18.0.0, SVG Export Plug-In . SVG Version: 6.00 Build 0)  -->
<!DOCTYPE svg PUBLIC "-//W3C//DTD SVG 1.1//EN" "http://www.w3.org/Graphics/SVG/1.1/DTD/svg11.dtd">
<svg version="1.1" id="Capa_1" xmlns="http://www.w3.org/2000/svg" xmlns:xlink="http://www.w3.org/1999/xlink" x="0px" y="0px"
	 viewBox="0 0 452.476 452.476" style="enable-background:new 0 0 452.476 452.476;" xml:space="preserve">
<g>
	<rect x="135.621" y="125.95" style="fill:#496A72;" width="26.044" height="45.225"/>
	<rect x="346.62" y="387.977" style="fill:#496A72;" width="26.044" height="64.499"/>
	<rect x="135.621" y="407.252" style="fill:#496A72;" width="26.044" height="45.225"/>
	<rect x="73.726" y="256.676" style="fill:#496A72;" width="26.044" height="64.499"/>
	<rect x="284.724" y="275.95" style="fill:#496A72;" width="26.044" height="45.225"/>
	<rect x="346.62" y="125.951" style="fill:#496A72;" width="26.044" height="64.499"/>
	<rect x="135.621" y="100.975" style="fill:#2A4044;" width="26.044" height="45.225"/>
	<rect x="346.62" y="100.975" style="fill:#2A4044;" width="26.044" height="45.225"/>
	<rect x="284.724" y="251.975" style="fill:#2A4044;" width="26.044" height="45.225"/>
	<rect x="135.621" y="395.482" style="fill:#2A4044;" width="26.044" height="45.225"/>
	<polygon style="fill:#2A4044;" points="372.664,431.373 346.62,440.706 346.62,395.482 372.664,395.482 	"/>
	<polygon style="fill:#2A4044;" points="99.77,297.2 73.726,288.925 73.726,251.975 99.77,251.975 	"/>
	<path style="fill:#666666;" d="M331.45,425.066H46.247v-83H331.45c18.35,0,33.279-14.929,33.279-33.279
		c0-18.35-14.929-33.279-33.279-33.279H121.026c-64.116,0-116.279-52.162-116.279-116.279S56.91,42.951,121.026,42.951h285.203v83
		H121.026c-18.35,0-33.279,14.929-33.279,33.279s14.929,33.279,33.279,33.279H331.45c64.116,0,116.279,52.162,116.279,116.279
		S395.566,425.066,331.45,425.066z"/>
	<path style="fill:#999999;" d="M331.45,403.733H46.247v-83H331.45c18.35,0,33.279-14.929,33.279-33.279
		c0-18.35-14.929-33.279-33.279-33.279H121.026c-64.116,0-116.279-52.162-116.279-116.279S56.91,21.617,121.026,21.617h285.203v83
		H121.026c-18.35,0-33.279,14.929-33.279,33.279s14.929,33.279,33.279,33.279H331.45c64.116,0,116.279,52.162,116.279,116.279
		S395.566,403.733,331.45,403.733z"/>
	<path style="fill:#CCCCCC;" d="M331.45,403.733h-9.203v-83h9.203c1.025,0,2.058-0.046,3.068-0.137l7.434,82.667
		C338.48,403.575,334.947,403.733,331.45,403.733z M315.247,403.733h-16v-83h16V403.733z M292.247,403.733h-16v-83h16V403.733z
		 M269.247,403.733h-16v-83h16V403.733z M246.247,403.733h-16v-83h16V403.733z M223.247,403.733h-16v-83h16V403.733z
		 M200.247,403.733h-16v-83h16V403.733z M177.247,403.733h-16v-83h16V403.733z M154.247,403.733h-16v-83h16V403.733z
		 M131.247,403.733h-16v-83h16V403.733z M108.247,403.733h-16v-83h16V403.733z M85.247,403.733h-16v-83h16V403.733z M62.247,403.733
		h-16v-83h16V403.733z M352.727,401.783l-15.125-81.61c2.312-0.429,4.582-1.108,6.745-2.02l32.229,76.487
		C368.922,397.866,360.898,400.269,352.727,401.783z M386.408,389.942l-39.267-73.124c2.088-1.121,4.066-2.474,5.879-4.021
		l53.871,63.142C400.588,381.317,393.696,386.028,386.408,389.942z M414.812,368.52l-59.499-57.869
		c1.665-1.712,3.147-3.601,4.406-5.616l70.392,43.978C425.731,356.023,420.584,362.586,414.812,368.52z M435.437,339.524
		l-74.196-37.202c1.055-2.104,1.884-4.323,2.462-6.597l80.434,20.479C442.088,324.25,439.161,332.096,435.437,339.524z
		 M446.327,305.531l-82.002-12.836c0.269-1.713,0.404-3.476,0.404-5.241c0-0.648-0.018-1.298-0.054-1.933l82.866-4.707
		c0.125,2.195,0.188,4.429,0.188,6.639C447.729,293.503,447.257,299.586,446.327,305.531z M364.354,282.399
		c-0.352-2.331-0.956-4.626-1.794-6.822l77.534-29.621c2.962,7.754,5.092,15.85,6.331,24.064L364.354,282.399z M361.322,272.748
		c-1.049-2.12-2.333-4.14-3.818-6.003l64.908-51.729c5.167,6.483,9.646,13.532,13.313,20.949L361.322,272.748z M355.44,264.389
		c-1.656-1.722-3.498-3.268-5.475-4.598l46.313-68.877c6.859,4.612,13.244,9.973,18.979,15.934L355.44,264.389z M347.305,258.178
		c-2.072-1.127-4.265-2.031-6.519-2.687l23.183-79.697c7.967,2.317,15.707,5.506,23.004,9.477L347.305,258.178z M337.784,254.769
		c-2.063-0.394-4.193-0.594-6.334-0.594h-1.785v-83h1.785c7.357,0,14.731,0.697,21.918,2.07L337.784,254.769z M322.665,254.175h-16
		v-83h16V254.175z M299.665,254.175h-16v-83h16V254.175z M276.665,254.175h-16v-83h16V254.175z M253.665,254.175h-16v-83h16V254.175
		z M230.665,254.175h-16v-83h16V254.175z M207.665,254.175h-16v-83h16V254.175z M184.665,254.175h-16v-83h16V254.175z
		 M161.665,254.175h-16v-83h16V254.175z M138.665,254.175h-16v-83h16V254.175z M112.743,253.883
		c-8.284-0.586-16.512-2.064-24.455-4.391l23.343-79.65c2.254,0.66,4.599,1.08,6.97,1.248L112.743,253.883z M77.979,245.935
		c-7.696-3.068-15.087-6.979-21.967-11.625l46.444-68.789c1.965,1.327,4.071,2.442,6.259,3.314L77.979,245.935z M47.3,227.817
		c-6.392-5.244-12.239-11.187-17.379-17.662l65.008-51.604c1.484,1.869,3.172,3.585,5.018,5.099L47.3,227.817z M23.57,201.34
		c-4.533-6.954-8.324-14.408-11.267-22.154l77.589-29.478c0.836,2.201,1.916,4.323,3.21,6.308L23.57,201.34z M8.914,168.817
		c-2.196-7.974-3.54-16.222-3.992-24.513l82.876-4.526c0.129,2.379,0.512,4.734,1.136,7L8.914,168.817z M87.771,136.598
		L4.83,133.491c0.311-8.295,1.51-16.56,3.565-24.565l80.393,20.64C88.203,131.845,87.86,134.211,87.771,136.598z M89.694,126.619
		L11.602,98.501c2.809-7.802,6.472-15.324,10.886-22.358l70.302,44.122C91.532,122.268,90.491,124.406,89.694,126.619z
		 M94.573,117.698L28.689,67.217c5.026-6.56,10.77-12.601,17.07-17.955l53.746,63.249C97.684,114.058,96.024,115.804,94.573,117.698
		z M101.981,110.598L54.357,42.62c6.793-4.76,14.11-8.795,21.745-11.995l32.084,76.548
		C106.012,108.084,103.924,109.236,101.981,110.598z M111.082,106.117L86.347,26.888c7.907-2.469,16.112-4.09,24.386-4.819
		l7.285,82.68C115.657,104.957,113.323,105.417,111.082,106.117z M406.229,104.617h-8.864v-83h8.864V104.617z M390.365,104.617h-16
		v-83h16V104.617z M367.365,104.617h-16v-83h16V104.617z M344.365,104.617h-16v-83h16V104.617z M321.365,104.617h-16v-83h16V104.617
		z M298.365,104.617h-16v-83h16V104.617z M275.365,104.617h-16v-83h16V104.617z M252.365,104.617h-16v-83h16V104.617z
		 M229.365,104.617h-16v-83h16V104.617z M206.365,104.617h-16v-83h16V104.617z M183.365,104.617h-16v-83h16V104.617z
		 M160.365,104.617h-16v-83h16V104.617z M137.365,104.617h-16v-83h16V104.617z"/>
	<g>
		<rect x="282.365" y="12" style="fill:#D3674A;" width="92.256" height="80.865"/>
		<rect x="282.365" y="0" style="fill:#EF7954;" width="92.256" height="52.167"/>
		<rect x="321.032" y="52.167" style="fill:#496A72;" width="14.923" height="15"/>
		<polygon style="fill:#D3674A;" points="282.365,52.167 374.621,0 374.621,52.167 282.365,0 		"/>
		<rect x="321.032" y="0" style="fill:#738B93;" width="14.923" height="52.167"/>
	</g>
	<g>
		<rect x="160.365" y="12" style="fill:#D3674A;" width="92.256" height="80.865"/>
		<rect x="160.365" y="0" style="fill:#EF7954;" width="92.256" height="52.167"/>
		<rect x="199.032" y="52.167" style="fill:#496A72;" width="14.923" height="15"/>
		<polygon style="fill:#D3674A;" points="160.365,52.167 252.621,0 252.621,52.167 160.365,0 		"/>
		<rect x="199.032" y="0" style="fill:#738B93;" width="14.923" height="52.167"/>
	</g>
	<g>
		<rect x="188.73" y="162" style="fill:#D3674A;" width="92.256" height="80.865"/>
		<rect x="188.73" y="150" style="fill:#EF7954;" width="92.256" height="52.167"/>
		<rect x="227.396" y="202.167" style="fill:#496A72;" width="14.923" height="15"/>
		<polygon style="fill:#D3674A;" points="188.73,202.167 280.985,150 280.985,202.167 188.73,150 		"/>
		<rect x="227.396" y="150" style="fill:#738B93;" width="14.923" height="52.167"/>
	</g>
	<g>
		<rect x="123.119" y="311.04" style="fill:#D3674A;" width="92.256" height="80.865"/>
		<rect x="123.119" y="299.039" style="fill:#EF7954;" width="92.256" height="52.167"/>
		<rect x="161.786" y="351.206" style="fill:#496A72;" width="14.923" height="15"/>
		<polygon style="fill:#D3674A;" points="123.119,351.206 215.375,299.04 215.375,351.206 123.119,299.04 		"/>
		<rect x="161.786" y="299.039" style="fill:#738B93;" width="14.923" height="52.167"/>
	</g>
</g>
<g>
</g>
<g>
</g>
<g>
</g>
<g>
</g>
<g>
</g>
<g>
</g>
<g>
</g>
<g>
</g>
<g>
</g>
<g>
</g>
<g>
</g>
<g>
</g>
<g>
</g>
<g>
</g>
<g>
</g>
</svg>
